# xmcd CD database file
#
# Track frame offsets:
#	182
#	20322
#	23035
#	39562
#	62337
#	64797
#	84822
#	101492
#	113540
#	132372
#	138135
#	152257
#	174590
#	197580
#	201325
#	223655
#	230492
#
# Disc length: 3257 seconds
#
# Revision: 6
# Processed by: cddbd v1.5.2PL0 Copyright (c) Steve Scherf et al.
# Submitted via: CDex 1.70beta2
#
DISCID=d30cb711
DTITLE=Personne Paul - Comme a la maison...
DYEAR=1992
DGENRE=Blues
TTITLE0=Salut !
TTITLE1=Boom boom
TTITLE2=Le rôle... on l'a d'jà  !
TTITLE3=Général Lee
TTITLE4="Fantômes"
TTITLE5=Nuits blanches... étoilées
TTITLE6=Vagabondages
TTITLE7=Quelqu'un appelle
TTITLE8=Lavomatics
TTITLE9=P'tit blues
TTITLE10=En cabane sur les branches
TTITLE11=Serenity-Street
TTITLE12=Picnic existentiel au bord d'un lit
TTITLE13=Cow-Boy
TTITLE14=Le bourdon
TTITLE15=Repaire
TTITLE16=Mélancolie
EXTD=YEAR: 1992
EXTT0=
EXTT1=
EXTT2=
EXTT3=
EXTT4=
EXTT5=
EXTT6=
EXTT7=
EXTT8=
EXTT9=
EXTT10=
EXTT11=
EXTT12=
EXTT13=
EXTT14=
EXTT15=
EXTT16=
PLAYORDER=
